<svg xmlns="http://www.w3.org/2000/svg" width="283.5" viewBox="0 0 283.5 283.5" height="283.5" version="1.0"><defs><clipPath id="a"><path d="M 10.085938 109 L 76 109 L 76 124 L 10.085938 124 Z M 10.085938 109"/></clipPath><clipPath id="b"><path d="M 208 138 L 263.582031 138 L 263.582031 153 L 208 153 Z M 208 138"/></clipPath><clipPath id="c"><path d="M 96 201 L 131 201 L 131 269.625 L 96 269.625 Z M 96 201"/></clipPath></defs><path fill="#F47D31" d="M 228.125 30.972656 L 228.296875 31.042969 L 228.257812 30.996094 L 228.082031 30.863281 C 228.136719 30.941406 228.082031 30.90625 228.125 30.972656"/><path fill="#F47D31" d="M 143.28125 253.960938 C 143.445312 253.9375 143.601562 253.917969 143.765625 253.890625 C 146.320312 253.632812 149.28125 253.332031 152.242188 253.035156 C 152.726562 252.9375 153.222656 252.855469 153.710938 252.761719 C 159.335938 252.675781 164.871094 252.222656 170.285156 251.394531 C 169.59375 251.691406 168.902344 251.996094 168.195312 252.324219 C 167.351562 252.683594 166.539062 253.050781 165.703125 253.402344 C 158.265625 254.222656 150.757812 254.40625 143.28125 253.960938 Z M 58.71875 214.582031 C 54.457031 211.59375 51.273438 208.566406 46.953125 204.328125 C 45.472656 202.976562 44.03125 200.230469 43.265625 198.644531 C 42.546875 197.003906 42.527344 196.378906 43.214844 196.832031 C 44.109375 197.421875 45.359375 198.675781 47.207031 201.128906 C 49.511719 203.886719 52.0625 206.417969 54.414062 209.035156 C 58 212.695312 61.199219 214.792969 62.863281 215.550781 C 63.148438 215.6875 63.496094 215.882812 63.871094 216.097656 L 64.144531 216.398438 C 65.535156 217.96875 67.199219 219.257812 68.710938 220.699219 L 71.144531 222.917969 C 69.984375 222.285156 68.496094 221.320312 66.910156 220.257812 C 63.4375 218.148438 60.683594 215.496094 58.71875 214.582031 Z M 40.089844 194.988281 C 39.21875 194.324219 38.027344 192.320312 37.28125 190.515625 C 37.042969 189.949219 37.0625 189.691406 36.960938 189.289062 C 37.207031 189.550781 37.40625 189.683594 37.710938 190.097656 C 38.570312 191.199219 39.300781 192.761719 39.960938 193.960938 C 40.441406 194.855469 40.503906 195.359375 40.089844 194.988281 Z M 34.460938 192.203125 C 34.160156 191.660156 33.832031 190.871094 33.585938 190.277344 C 33.515625 190.109375 33.667969 190.21875 33.730469 190.199219 C 34.097656 190.597656 34.589844 191.332031 35.214844 192.648438 C 35.367188 192.96875 35.511719 193.355469 35.542969 193.507812 C 35.640625 194.011719 35.152344 193.464844 34.460938 192.203125 Z M 28.785156 183.628906 C 28.601562 183.285156 28.082031 181.914062 27.992188 181.523438 C 27.890625 181.109375 28.011719 180.96875 28.210938 181.285156 C 28.582031 181.878906 29.074219 182.890625 29.519531 183.726562 C 29.660156 184.449219 30.007812 185.441406 29.925781 185.328125 C 29.582031 185.039062 29.222656 184.421875 28.785156 183.628906 Z M 133.574219 -4.882812 C 136.597656 -5.15625 139.902344 -5.222656 143.183594 -5.40625 C 143.6875 -5.429688 144.742188 -5.316406 145.421875 -5.25 C 145.691406 -5.222656 145.644531 -5.148438 145.746094 -5.09375 C 145.464844 -4.996094 145.414062 -4.871094 144.871094 -4.804688 C 141.199219 -4.269531 137 -4.257812 131.976562 -3.621094 C 131.632812 -3.574219 130.914062 -3.53125 130.722656 -3.542969 C 130.230469 -3.585938 129.574219 -3.636719 129.609375 -3.726562 C 129.757812 -4.089844 131.277344 -4.507812 133.574219 -4.882812 Z M 135.875 -6.257812 C 136.097656 -6.242188 136.449219 -6.21875 136.746094 -6.203125 C 136.601562 -6.167969 136.511719 -6.113281 136.292969 -6.105469 C 136.066406 -6.121094 135.71875 -6.148438 135.421875 -6.164062 C 135.566406 -6.199219 135.65625 -6.253906 135.875 -6.257812 Z M 187.804688 7.933594 C 188.003906 7.980469 188.515625 8.203125 188.882812 8.347656 C 189.011719 8.453125 189.300781 8.636719 189.222656 8.644531 C 189.140625 8.65625 188.726562 8.546875 188.449219 8.429688 C 187.339844 7.953125 187.074219 7.75 187.804688 7.933594 Z M 196.445312 12.441406 C 196.996094 12.667969 197.804688 13.105469 198.585938 13.566406 C 198.28125 13.453125 197.972656 13.328125 197.664062 13.214844 C 195.960938 12.5625 194.273438 11.917969 192.605469 11.277344 C 193.867188 11.644531 195.152344 11.964844 196.445312 12.441406 Z M 204.972656 15.484375 C 206.597656 16.226562 208.050781 17.125 209.210938 18.179688 C 209.5 18.425781 209.765625 18.660156 210.023438 18.890625 C 209.351562 18.574219 208.675781 18.261719 208.019531 17.921875 C 206.714844 17.285156 205.421875 16.65625 204.128906 16.023438 C 203.796875 15.785156 203.472656 15.550781 203.214844 15.320312 C 202.277344 14.542969 203.023438 14.542969 204.972656 15.484375 Z M 218.246094 22.410156 C 219.523438 23.351562 220.824219 24.316406 222.164062 25.304688 C 223.585938 26.382812 224.929688 27.558594 226.0625 28.679688 C 226.566406 29.21875 227.066406 29.703125 227.546875 30.207031 L 227.023438 29.816406 L 223.953125 27.492188 C 222.9375 26.703125 221.921875 25.917969 220.804688 25.273438 C 219.441406 24.4375 217.976562 23.539062 216.492188 22.628906 C 216.164062 22.261719 215.828125 21.894531 215.53125 21.535156 C 214.695312 20.53125 215.597656 20.832031 218.246094 22.410156 Z M 226.492188 27.351562 C 226.816406 27.527344 227.648438 28.132812 228.183594 28.585938 C 229.308594 29.484375 229.710938 30.351562 229.105469 29.894531 C 228.792969 29.660156 228.007812 29.054688 227.433594 28.621094 C 226.371094 27.6875 225.820312 26.988281 226.492188 27.351562 Z M 237.25 35.738281 C 239.648438 37.792969 241.625 40.398438 243.855469 42.722656 L 241.339844 41.195312 C 239.5 39.234375 238.128906 37.898438 235.742188 35.664062 C 235.304688 35.230469 234.558594 34.320312 234.503906 34.15625 C 234.277344 33.460938 235.484375 34.148438 237.25 35.738281 Z M 244.082031 42.972656 C 244.585938 42.71875 246.949219 44.265625 249.824219 48.144531 C 251.417969 50.21875 252.835938 52.347656 254.34375 54.707031 C 255.152344 55.921875 255.820312 56.820312 256.148438 57.136719 C 256.363281 57.316406 256.511719 57.355469 256.640625 57.371094 C 257 57.410156 257.683594 58.148438 258.894531 60.210938 C 260.921875 63.777344 262.867188 66.351562 264.046875 68.261719 C 264.214844 68.515625 264.804688 69.855469 265.042969 70.5 C 265.28125 71.164062 265.457031 71.886719 265.433594 72.070312 C 265.363281 72.605469 265.113281 72.746094 265.050781 73.292969 C 264.9375 74.289062 264.511719 74.261719 262.5 69.859375 C 261.890625 68.480469 261.195312 67.417969 260.53125 66.636719 C 260.125 66.117188 259.796875 65.773438 259.46875 65.445312 C 258.28125 63.460938 257.101562 61.472656 255.824219 59.546875 L 250.246094 52.117188 L 248.835938 50.269531 L 247.261719 48.550781 L 246.78125 48.027344 C 246.652344 47.179688 245.785156 45.4375 244.0625 42.953125 Z M 268.90625 77.074219 C 269.273438 77.636719 269.789062 78.523438 270.136719 79.546875 C 270.273438 79.914062 270.472656 80.902344 270.640625 81.605469 C 270.542969 82.058594 270.1875 81.496094 269.535156 79.699219 C 269.332031 79.097656 268.941406 77.949219 268.792969 77.515625 C 268.667969 77.066406 268.722656 76.792969 268.90625 77.074219 Z M 212.875 21.367188 L 212.097656 20.890625 C 210.742188 20.140625 209.355469 19.453125 207.960938 18.773438 C 207.09375 18.046875 206.152344 17.398438 205.261719 16.804688 C 207.128906 17.691406 208.972656 18.617188 210.792969 19.589844 C 211.40625 20.148438 212.046875 20.714844 212.875 21.367188 Z M 233.886719 35.296875 C 235.101562 36.238281 236.328125 37.351562 237.570312 38.609375 C 236.339844 37.507812 235.109375 36.40625 233.886719 35.296875 Z M 244.175781 48.867188 C 244.859375 49.636719 245.597656 50.503906 246.359375 51.425781 C 245.914062 50.910156 245.277344 50.1875 244.777344 49.632812 C 244.398438 49.222656 244.011719 48.796875 243.625 48.371094 C 243.808594 48.542969 243.984375 48.691406 244.175781 48.867188 Z M 198.410156 16.402344 C 197.828125 16.207031 197.367188 16.082031 197.273438 16.082031 C 197.132812 16.082031 197.660156 16.316406 198.507812 16.652344 C 198.59375 16.816406 198.699219 17 198.824219 17.195312 C 197.597656 16.789062 196.453125 16.414062 195.359375 16.054688 C 194.964844 15.902344 194.558594 15.777344 194.160156 15.628906 C 194.292969 15.378906 193.902344 14.890625 192.941406 14.148438 C 193.832031 14.476562 194.722656 14.800781 195.613281 15.128906 C 196.515625 15.480469 197.433594 15.789062 198.347656 16.113281 C 198.355469 16.203125 198.371094 16.296875 198.410156 16.402344 Z M 210.167969 22.679688 C 209.980469 22.59375 210.035156 22.714844 210.140625 22.871094 C 209.027344 22.269531 207.914062 21.667969 206.777344 21.097656 C 207.726562 21.523438 208.667969 21.941406 209.636719 22.375 C 210.078125 22.589844 210.5 22.8125 210.917969 23.050781 C 210.667969 22.929688 210.414062 22.808594 210.167969 22.679688 Z M 201.996094 18.550781 C 202.105469 18.492188 202.25 18.464844 202.441406 18.457031 C 202.804688 18.640625 203.167969 18.828125 203.535156 19 C 205 19.722656 206.777344 20.59375 207.136719 20.851562 C 207.609375 21.1875 205.570312 20.207031 204.226562 19.582031 C 203.453125 19.234375 202.722656 18.886719 201.996094 18.550781 Z M 205.445312 19.40625 C 205.992188 19.757812 204.777344 19.191406 203.574219 18.628906 C 203.90625 18.714844 204.308594 18.855469 204.75 19.023438 C 205.0625 19.183594 205.3125 19.320312 205.445312 19.40625 Z M 159.042969 5.394531 C 159.132812 5.382812 159.222656 5.371094 159.328125 5.359375 C 160.746094 5.277344 162.566406 5.46875 165.085938 5.914062 C 163.082031 5.691406 161.066406 5.515625 159.042969 5.394531 Z M 107.652344 15.820312 L 104.5 16.664062 C 104.195312 16.738281 103.855469 16.773438 103.734375 16.761719 C 103.625 16.746094 103.679688 16.632812 103.832031 16.582031 C 104.488281 16.363281 105.53125 16.003906 105.835938 15.957031 C 106.589844 15.847656 107.078125 15.851562 107.652344 15.820312 Z M 81.007812 30.265625 C 81.011719 30.261719 81.015625 30.257812 81.015625 30.253906 C 82.066406 29.464844 83.125 28.699219 84.238281 28.011719 C 83.445312 28.464844 82.683594 28.976562 81.921875 29.507812 C 83.519531 28.230469 85.296875 27.007812 88.113281 25.296875 C 89.597656 24.425781 90.820312 23.445312 91.820312 22.894531 C 93.585938 21.773438 95.851562 20.660156 99.207031 19.339844 C 103.457031 17.742188 106.324219 16.902344 107.910156 15.765625 C 109.222656 15.242188 110.519531 14.722656 111.800781 14.207031 C 113.121094 13.828125 114.425781 13.453125 115.707031 13.082031 C 118.28125 12.292969 120.78125 11.527344 123.191406 10.785156 C 124.871094 10.484375 126.496094 10.121094 128.097656 9.75 C 128.167969 9.742188 128.238281 9.734375 128.308594 9.726562 C 129.519531 9.546875 130.707031 9.363281 131.265625 9.214844 C 131.148438 9.1875 130.503906 9.265625 129.722656 9.375 C 131.433594 8.972656 133.097656 8.597656 134.722656 8.269531 C 135.21875 8.210938 135.742188 8.140625 136.3125 8.066406 C 137.800781 7.855469 139.492188 7.574219 141.25 7.546875 C 143.222656 7.441406 145.199219 7.332031 147.175781 7.226562 C 148.007812 7.226562 148.488281 7.210938 148.699219 7.140625 C 149.160156 7.113281 149.621094 7.089844 150.082031 7.066406 C 151.554688 6.925781 153.019531 7.015625 154.484375 7.085938 C 155.945312 7.148438 157.402344 7.214844 158.855469 7.277344 L 163.613281 7.488281 C 165.203125 7.554688 166.761719 7.90625 168.332031 8.109375 C 171.457031 8.621094 174.601562 8.972656 177.640625 9.65625 C 180.863281 10.554688 184.105469 11.3125 187.296875 12.234375 C 187.492188 12.421875 187.882812 12.703125 188.523438 13.097656 C 189.328125 13.601562 188.683594 13.53125 187.695312 13.222656 C 182.199219 11.230469 176.355469 10.472656 170.605469 9.257812 C 166.644531 8.832031 162.527344 8.328125 159.699219 8.261719 C 159.539062 8.273438 159.363281 8.28125 159.195312 8.292969 C 156.75 8.148438 154.292969 8.046875 151.8125 8.046875 C 124.726562 8.046875 99.707031 16.867188 79.433594 31.761719 C 79.957031 31.269531 80.484375 30.765625 81.007812 30.265625 Z M 29.632812 116.570312 C 29.589844 116.953125 29.53125 117.335938 29.492188 117.71875 C 29.492188 117.695312 29.492188 117.679688 29.496094 117.652344 C 29.515625 117.382812 29.570312 116.960938 29.632812 116.570312 Z M 29.964844 119.375 C 29.886719 119.566406 29.804688 119.722656 29.722656 119.925781 C 29.5625 119.96875 29.476562 119.652344 29.457031 119.039062 C 29.566406 117.875 29.707031 116.710938 29.871094 115.550781 C 30.113281 114.945312 30.292969 114.984375 30.371094 115.605469 C 30.21875 116.855469 30.082031 118.113281 29.964844 119.375 Z M 248.738281 50.707031 C 250.738281 53.28125 252.796875 56.007812 254.820312 58.777344 L 255.9375 60.320312 L 256.914062 61.953125 L 258.222656 64.121094 C 256.613281 62.308594 254.898438 59.859375 252.335938 56.445312 C 250.972656 54.75 249.8125 53.5 248.5 51.902344 C 248.375 51.734375 248.253906 51.570312 248.132812 51.402344 C 247.976562 51.214844 247.808594 51.035156 247.648438 50.847656 C 247.089844 50.136719 246.492188 49.339844 245.832031 48.410156 C 245.875 48.402344 245.90625 48.375 245.984375 48.417969 C 246.363281 48.640625 246.617188 48.671875 246.734375 48.53125 C 247.402344 49.253906 248.082031 49.992188 248.738281 50.707031 Z M 228.257812 30.996094 L 231.953125 33.828125 C 234.738281 36.160156 237.414062 38.617188 239.972656 41.191406 C 241.347656 42.757812 242.75 44.476562 244.199219 46.339844 C 244.675781 46.953125 245.1875 47.535156 245.625 48.175781 C 245.472656 48.132812 245.277344 48.03125 245.0625 47.902344 C 244.871094 47.679688 244.667969 47.457031 244.480469 47.238281 C 239.875 41.664062 234.363281 36.605469 228.402344 31.921875 C 228.574219 31.875 228.53125 31.613281 228.125 30.972656 C 227.519531 30.667969 227.015625 30.519531 227.054688 30.863281 C 224.835938 29.160156 222.558594 27.503906 220.242188 25.898438 L 218 24.519531 C 217.96875 24.460938 217.953125 24.417969 217.902344 24.347656 C 217.582031 23.890625 217.207031 23.449219 216.828125 23.023438 C 220.640625 25.339844 224.328125 27.847656 227.859375 30.554688 C 227.992188 30.703125 228.132812 30.835938 228.257812 30.996094 Z M 199.996094 14.464844 C 200.5 14.816406 200.882812 15.113281 200.96875 15.261719 C 201 15.320312 201.046875 15.386719 201.089844 15.449219 C 198.992188 14.535156 196.8125 13.789062 194.660156 12.980469 C 191.652344 11.867188 188.664062 10.671875 185.503906 9.984375 C 183.867188 9.496094 182.207031 9.054688 180.535156 8.640625 C 180.648438 8.46875 181.085938 8.40625 181.796875 8.46875 C 188.011719 9.992188 194.09375 12.007812 199.996094 14.464844 Z M 54.617188 207.832031 C 54.496094 207.738281 54.402344 207.71875 54.246094 207.542969 C 54.125 207.371094 53.898438 207.054688 53.722656 206.796875 C 53.84375 206.886719 53.9375 206.90625 54.09375 207.085938 C 54.214844 207.257812 54.4375 207.574219 54.617188 207.832031 Z M 72.105469 223.386719 L 70.75 222.144531 C 68.832031 220.390625 66.917969 218.640625 65.011719 216.894531 C 64.929688 216.8125 64.851562 216.726562 64.769531 216.640625 C 64.96875 216.765625 65.152344 216.875 65.371094 217.011719 C 67.621094 219.257812 69.949219 221.429688 72.363281 223.496094 C 72.285156 223.464844 72.191406 223.425781 72.105469 223.386719 Z M 272.085938 95.816406 C 272.726562 98.488281 273.46875 101.5625 273.414062 101.941406 C 273.339844 102.453125 272.253906 98.257812 271.492188 95.558594 C 271.207031 94.554688 271.183594 94.578125 271.308594 95.09375 C 272.035156 97.914062 272.746094 100.652344 273.441406 103.34375 L 273.953125 105.351562 L 274.265625 107.378906 C 274.472656 108.726562 274.679688 110.0625 274.882812 111.390625 C 275.28125 112.484375 275.480469 113.035156 275.761719 114.433594 C 275.886719 115.132812 276.050781 116.042969 276.285156 117.335938 C 276.335938 117.820312 276.378906 118.375 276.417969 118.972656 C 276.121094 118.667969 275.816406 118.46875 275.503906 118.457031 C 275.027344 118.4375 274.574219 119.304688 274.144531 121.769531 C 274.074219 122.15625 274.011719 122.558594 273.941406 122.953125 C 272.089844 92.226562 258.871094 64.59375 238.472656 44.117188 C 239.617188 44.957031 240.835938 45.921875 242.191406 47.09375 C 243.078125 48.050781 243.996094 49.046875 244.96875 50.125 C 245.96875 51.203125 247.277344 52.664062 246.871094 52.046875 C 248.421875 53.945312 250.117188 56.128906 252.03125 58.785156 C 253.574219 61.398438 254.90625 63.210938 255.410156 63.269531 C 255.503906 63.28125 255.625 63.335938 255.75 63.417969 C 255.996094 63.789062 256.226562 64.125 256.429688 64.386719 C 257.070312 65.25 257.859375 66.433594 258.785156 67.898438 C 259.683594 69.375 260.882812 71.039062 261.804688 73.15625 C 262.820312 75.230469 263.828125 77.296875 264.835938 79.359375 C 265.328125 80.394531 265.882812 81.40625 266.320312 82.460938 L 267.527344 85.675781 C 268.007812 86.960938 268.269531 87.527344 268.289062 87.410156 C 268.308594 87.300781 268.042969 86.460938 267.632812 85.28125 C 267.507812 84.921875 267.359375 84.5 267.230469 84.144531 L 266.503906 82.195312 C 266.238281 81.558594 265.910156 80.949219 265.617188 80.328125 C 265.015625 79.085938 264.421875 77.851562 263.824219 76.621094 C 263.230469 75.390625 262.640625 74.164062 262.050781 72.941406 L 261.167969 71.105469 L 260.125 69.367188 C 259.53125 68.375 258.941406 67.390625 258.351562 66.40625 C 258.601562 66.746094 258.859375 67.097656 259.125 67.476562 C 260.304688 68.929688 260.890625 70.253906 261.90625 71.828125 C 262.644531 73.199219 263.554688 74.902344 264.402344 76.480469 C 266.128906 79.308594 267.402344 84.707031 268.484375 86.46875 C 268.617188 86.691406 268.742188 86.886719 268.859375 87.058594 L 269.078125 87.605469 C 269.03125 87.460938 268.992188 87.324219 268.953125 87.1875 C 269.207031 87.539062 269.441406 87.800781 269.660156 88.019531 C 269.703125 88.136719 269.738281 88.25 269.78125 88.367188 C 270.625 90.839844 271.585938 93.269531 272.085938 95.816406 Z M 79.207031 263.863281 C 78.726562 263.863281 76.675781 262.886719 74.992188 261.855469 C 73.195312 260.746094 72.160156 259.90625 72.539062 259.878906 C 72.914062 259.847656 74.988281 260.851562 76.839844 261.953125 C 78.671875 263.039062 79.695312 263.859375 79.207031 263.863281 Z M 19.203125 78.484375 C 18.976562 79.113281 18.503906 80.199219 18.195312 80.800781 C 17.882812 81.410156 17.511719 81.960938 17.375 82.042969 C 17.027344 82.246094 17.25 81.273438 17.78125 79.761719 C 18.003906 79.132812 18.464844 78.027344 18.765625 77.449219 C 19.0625 76.867188 19.289062 76.675781 19.546875 76.320312 C 19.769531 76.375 19.785156 76.871094 19.203125 78.484375 Z M 18.46875 159.839844 C 18.265625 159.953125 17.800781 158.648438 17.457031 156.992188 C 17.125 155.382812 16.839844 153.132812 16.925781 152.554688 C 17.015625 151.925781 17.167969 151.554688 17.253906 151.226562 C 17.503906 151.585938 17.644531 151.742188 17.796875 152.003906 C 18.078125 152.484375 18.613281 155.058594 18.71875 156.386719 C 18.898438 158.621094 18.789062 159.667969 18.46875 159.839844 Z M 14.980469 96.878906 C 14.851562 97.769531 14.675781 98.992188 14.539062 99.988281 C 14.386719 100.5 14.25 100.96875 14.195312 101.152344 C 14.113281 101.339844 14.023438 101.414062 14.023438 101.246094 C 14.09375 99.25 13.851562 97.347656 14.84375 93.855469 C 15.011719 93.199219 15.382812 92.042969 15.621094 91.445312 C 15.824219 90.949219 16.164062 90.511719 16.117188 90.785156 C 15.757812 92.703125 15.378906 94.75 14.980469 96.878906 Z M 15.109375 146.054688 C 15.074219 146.445312 14.902344 146.507812 14.824219 146.101562 C 14.050781 141.621094 12.832031 136.875 12.535156 132.847656 C 12.472656 132.347656 12.472656 131.28125 12.453125 130.449219 C 12.417969 128.945312 12.652344 126.417969 12.84375 126.289062 C 12.945312 126.441406 13.085938 126.300781 13.140625 126.789062 C 13.65625 131.679688 13.945312 137.355469 15.050781 143.824219 C 15.125 144.355469 15.152344 145.648438 15.109375 146.054688 Z M 282.851562 146.632812 L 281.855469 138.988281 C 281.484375 136.4375 281.316406 133.425781 280.738281 131.488281 C 280.296875 130.132812 279.878906 128.636719 279.464844 126.945312 C 278.546875 123.183594 277.578125 120.25 276.507812 119.054688 C 276.222656 115.09375 275.539062 111.425781 275.109375 107.835938 C 274.855469 105.964844 274.898438 105.703125 275.1875 107.179688 C 275.457031 108.660156 275.800781 110.511719 276.15625 112.453125 C 275.949219 110.90625 275.742188 109.355469 275.539062 107.839844 C 275.335938 106.324219 275.175781 104.835938 274.800781 103.472656 C 273.828125 99.363281 272.992188 95.699219 271.851562 92.433594 C 271.390625 91.339844 270.882812 90.058594 270.347656 88.671875 C 270.492188 88.808594 270.640625 88.960938 270.792969 89.140625 C 271.46875 89.964844 272.242188 90.808594 272.921875 91.929688 C 273.25 92.492188 273.667969 93.710938 274.109375 95.617188 L 275.308594 100.96875 C 276.402344 105.363281 276.648438 108.613281 277.410156 111.035156 C 277.785156 112.570312 278.265625 114.53125 278.679688 116.230469 C 279.046875 117.703125 279.351562 118.125 279.644531 118.164062 C 280.289062 118.265625 280.492188 115.789062 280.242188 110.691406 L 280.285156 110.886719 C 279.9375 108.851562 279.613281 106.671875 279.425781 104.160156 C 278.15625 97.335938 277.105469 90.925781 274.730469 85.007812 C 273.621094 82.042969 272.761719 79.015625 271.445312 76.167969 C 270.113281 73.324219 268.78125 70.484375 267.433594 67.613281 C 265.222656 62.882812 262.28125 58.59375 259.769531 54.21875 C 256.804688 50.121094 253.882812 46.105469 250.820312 42.414062 C 246.546875 37.800781 242.210938 32.691406 236.855469 27.734375 C 232.804688 23.386719 228.296875 20.394531 225.101562 18.332031 C 224.410156 17.867188 223.253906 17.082031 222.320312 16.449219 C 220.816406 15.597656 219.265625 14.449219 217.605469 12.957031 C 216.359375 11.835938 214.5625 10.578125 214.03125 10.480469 C 212.386719 10.03125 208.214844 8.226562 203.828125 6.207031 L 202.78125 5.738281 C 200.941406 4.886719 199 3.859375 196.710938 2.898438 C 195.613281 2.394531 193.890625 1.710938 193.175781 1.515625 C 187.917969 -0.222656 180.726562 -1.71875 175.140625 -2.777344 C 172.59375 -3.089844 169.703125 -3.445312 166.675781 -3.816406 C 163.660156 -4.230469 160.527344 -4.710938 157.410156 -4.695312 C 155.910156 -4.746094 153.300781 -5.210938 153.265625 -5.4375 C 153.058594 -6.453125 155.226562 -7.652344 164.589844 -6.511719 L 168.3125 -5.949219 C 172.582031 -5.332031 175.632812 -5.097656 177.585938 -4.917969 C 179.285156 -4.855469 180.644531 -4.925781 184.003906 -4.207031 C 188.644531 -3.433594 192.722656 -1.875 197.332031 -0.5 C 201.449219 0.71875 203.679688 1.507812 205.914062 2.078125 C 206.765625 2.304688 206.316406 1.800781 205.179688 0.964844 C 203.53125 -0.296875 201.371094 -1.6875 198.441406 -2.796875 C 190.449219 -6.34375 181.925781 -9.121094 173.730469 -10.84375 C 163.886719 -12.746094 153.695312 -13.863281 143.5625 -13.621094 C 134.804688 -13.65625 125.898438 -12.480469 118.4375 -10.949219 C 116.175781 -10.371094 113.484375 -9.6875 110.921875 -9.03125 C 107.039062 -8.210938 103.242188 -6.949219 99.484375 -5.527344 C 97.234375 -4.730469 96.179688 -4.621094 94.871094 -4.414062 C 93.878906 -4.257812 91.914062 -3.648438 91.324219 -3.199219 C 90.867188 -2.914062 90 -2.464844 89.96875 -2.347656 C 89.695312 -1.417969 85.96875 0.527344 81.128906 2.902344 C 77.144531 5.167969 73.882812 7.484375 70.507812 9.691406 C 68.132812 11.210938 65.984375 13.019531 62.800781 14.84375 C 60.070312 16.515625 58.015625 17.96875 56.683594 19.484375 C 55.804688 20.390625 55.347656 21.035156 54.914062 21.644531 C 54.324219 22.464844 53.40625 23.527344 51.488281 25.132812 C 46.265625 29.425781 43.570312 33.300781 41.863281 35.757812 C 41.3125 36.601562 39.988281 38.148438 39.070312 39.628906 C 36.230469 44 33.160156 47.972656 30.644531 52.890625 C 29.371094 55.097656 28.039062 57.417969 26.679688 59.78125 C 25.527344 62.246094 24.355469 64.757812 23.199219 67.238281 C 23.050781 67.550781 22.214844 68.84375 21.976562 69.109375 C 21.164062 70.015625 21.121094 69.507812 21.371094 68.539062 C 21.976562 66.203125 23.152344 63.007812 24.59375 59.429688 C 25.285156 57.847656 26.554688 56.058594 28.027344 53.953125 C 31.910156 48.53125 31.863281 48.488281 31.757812 47.289062 C 31.746094 47.132812 31.71875 46.980469 31.976562 46.539062 C 32.226562 46.121094 32.804688 45.304688 33.300781 44.71875 L 36.085938 41.59375 C 37.886719 39.542969 39.191406 37.636719 38.617188 37.890625 C 38.164062 38.09375 37.558594 38.484375 37 38.8125 C 36.253906 39.253906 36.011719 39.09375 37.003906 37.585938 C 39.417969 33.992188 42.429688 30.691406 45.246094 27.101562 C 45.570312 26.742188 46.570312 25.695312 47.242188 25.230469 C 47.953125 24.761719 48.414062 24.453125 49.09375 24.007812 C 49.71875 23.570312 50.621094 22.941406 51.09375 22.523438 C 51.601562 22.074219 52.007812 21.574219 52.023438 21.4375 C 52.074219 20.96875 51.90625 20.671875 51.886719 20.257812 C 51.863281 19.808594 52.957031 18.542969 55.300781 16.546875 C 58.429688 14.054688 61.074219 12.285156 62.789062 10.605469 C 63.71875 9.746094 65.628906 8.261719 67.328125 7.058594 C 69.851562 5.515625 72.589844 3.839844 75.089844 2.304688 C 80.160156 -0.820312 80.628906 -1.554688 76.363281 -0.0898438 C 75.132812 0.386719 73.773438 0.914062 72.429688 1.433594 C 69.957031 2.5 66.824219 3.742188 63.753906 5.804688 C 62.078125 6.933594 60.347656 8.105469 58.757812 9.179688 C 53.027344 12.90625 47.976562 17.71875 42.824219 22.160156 C 38.132812 27.101562 33.316406 31.777344 29.730469 37 C 27.996094 39.484375 25.453125 42.132812 23.753906 45.027344 C 21.351562 48.910156 18.65625 52.644531 16.625 56.617188 C 14.644531 60.613281 12.628906 64.449219 11.082031 68.183594 C 9.304688 73.457031 6.894531 78.660156 5.636719 84.246094 C 4.328125 89.351562 2.808594 94.410156 2.242188 99.53125 C 1.425781 104.59375 0.726562 109.519531 0.785156 114.214844 C 0.644531 118.828125 0.449219 123.523438 0.945312 128.289062 C 1.257812 133.050781 1.457031 137.875 2.417969 142.675781 C 3.03125 146.054688 3.371094 149.585938 4.210938 153.105469 C 5.085938 156.613281 5.980469 160.195312 6.882812 163.8125 C 7.488281 166.445312 8.433594 168.527344 9.160156 170.191406 C 10.117188 172.191406 11.222656 174.824219 12.324219 177.550781 C 15.378906 183.523438 18.160156 189.824219 22.101562 195.433594 C 22.910156 196.691406 23.800781 198.097656 24.683594 199.65625 C 27.398438 204.398438 29.953125 206.917969 31.941406 209.191406 C 33.332031 210.757812 35.300781 213.117188 37.082031 214.644531 C 39.039062 216.433594 41.632812 219.871094 43.890625 222.214844 C 45.128906 223.316406 46.371094 224.421875 47.464844 225.394531 C 52.59375 230.085938 58.378906 233.980469 63.089844 236.867188 C 66.273438 238.777344 70.269531 240.707031 74.003906 242.785156 C 75.027344 243.390625 76.628906 244.355469 78.097656 245.015625 C 81.316406 245.828125 85.46875 247.683594 89.945312 249.015625 C 93.464844 250.023438 97.070312 251.046875 100.6875 252.078125 C 104.359375 252.75 108.042969 253.421875 111.652344 254.078125 C 117.441406 254.78125 123.640625 255.332031 127.316406 254.921875 C 127.855469 254.839844 128.523438 254.757812 129.472656 254.769531 C 134.488281 254.789062 138.019531 254.695312 142.140625 254.128906 C 142.171875 254.132812 142.199219 254.132812 142.226562 254.132812 C 145.707031 254.28125 149.191406 254.585938 152.671875 254.597656 C 156.152344 254.4375 159.632812 254.277344 163.105469 254.117188 C 163.425781 254.082031 163.742188 254.042969 164.0625 254.003906 C 161.246094 254.84375 157.882812 255.679688 153.140625 256.480469 C 149.476562 256.894531 146.558594 257.226562 143.789062 257.539062 C 142.175781 257.738281 140.507812 257.941406 138.773438 258.152344 C 137.027344 258.152344 135.214844 258.152344 133.324219 258.152344 C 129.527344 258.101562 125.351562 258.140625 120.84375 257.269531 C 118.1875 256.867188 115.652344 256.554688 113.695312 256.417969 C 110.878906 256.136719 108.984375 255.898438 104.621094 254.753906 C 103.628906 254.480469 102.832031 254.425781 102.507812 254.476562 C 101.425781 254.675781 99.21875 254.386719 96.382812 253.433594 C 94.539062 252.875 92.546875 252.261719 91.414062 252.082031 C 88.089844 251.734375 82.9375 249.460938 77.808594 247.195312 C 73.390625 245.464844 69.300781 242.644531 64.960938 240.347656 C 60.742188 237.851562 56.910156 234.894531 53.117188 232.460938 C 52.28125 231.917969 51.316406 230.992188 50.453125 230.265625 C 46.511719 226.796875 42.269531 223.5625 38.75 219.59375 C 37.179688 217.960938 35.6875 216.507812 33.980469 214.566406 C 30.28125 209.898438 27.441406 206.308594 24.523438 202.625 C 21.007812 197.171875 17.015625 191.847656 14.203125 185.945312 C 13.527344 184.675781 12.878906 183.527344 12.300781 182.582031 C 10.308594 179.625 8.757812 175.75 7.027344 171.597656 C 5.152344 167.476562 3.773438 162.882812 2.523438 158.285156 C 0.839844 153.191406 -0.0390625 147.503906 -0.96875 142.582031 C -1.667969 139.402344 -2.171875 136.074219 -2.34375 132.632812 C -2.609375 129.195312 -2.929688 125.679688 -3.09375 122.132812 C -2.867188 115.058594 -3.015625 107.820312 -1.945312 101.082031 C -1.84375 100.332031 -1.71875 99.433594 -1.609375 98.621094 C -0.996094 92.082031 0.964844 85.960938 2.421875 79.34375 C 3.695312 75.496094 4.390625 73 4.453125 71.59375 C 4.535156 69.925781 4.621094 68.257812 4.554688 66.925781 C 4.523438 66.292969 3.761719 67.316406 2.679688 69.359375 C 1.894531 70.839844 0.941406 72.730469 0.15625 74.523438 C -3.710938 83.894531 -6.550781 93.679688 -7.921875 103.222656 C -8.984375 107.984375 -8.988281 113.21875 -9.503906 118.292969 C -9.984375 122.375 -9.71875 126.398438 -9.65625 130.371094 C -9.535156 134.34375 -9.535156 138.269531 -8.886719 142.117188 C -7.738281 152.675781 -5.566406 163.441406 -2.089844 173.675781 C -1.308594 176.003906 -0.496094 178.417969 0.316406 180.824219 C 0.617188 181.765625 0.914062 182.84375 1.351562 183.800781 C 2.136719 185.691406 2.613281 187.308594 2.480469 187.6875 C 2.207031 188.457031 2.515625 189.355469 4.273438 192.941406 C 4.875 194.128906 5.410156 195.1875 6.011719 196.375 C 6.671875 197.632812 7.511719 199.226562 7.691406 199.980469 C 7.878906 200.65625 7.863281 201.003906 8.148438 201.847656 C 8.300781 202.296875 8.898438 203.554688 9.308594 204.300781 C 9.734375 205.085938 10.308594 205.980469 10.582031 206.316406 C 11.046875 206.875 11.390625 207.171875 11.65625 207.324219 C 13.164062 208.328125 16.058594 211.457031 21.082031 218.035156 C 22.902344 220.570312 24.703125 222.332031 26.734375 224.460938 C 27.84375 225.6875 29.15625 227.132812 30.417969 228.527344 C 31.667969 229.972656 33.75 232.679688 34.792969 233.972656 C 35.070312 234.351562 34.878906 234.441406 34.511719 234.113281 C 33.203125 233.007812 31.855469 231.609375 30.601562 230.097656 C 28.851562 228.09375 27.503906 226.683594 26.625 226.019531 C 26.125 225.644531 25.714844 225.394531 25.320312 225.15625 C 24.523438 224.609375 22.875 223.273438 20.914062 220.421875 C 20.019531 219.1875 19.152344 217.992188 18.34375 216.875 C 16.964844 215.015625 16.847656 215.621094 18.101562 217.800781 C 19.113281 219.535156 20.230469 221.375 21.480469 222.925781 C 22.738281 224.285156 23.835938 225.46875 25.003906 226.726562 L 30.710938 232.777344 C 32.671875 234.734375 34.835938 236.507812 36.921875 238.386719 C 37.273438 238.695312 38.199219 239.769531 38.765625 240.421875 C 38.988281 240.679688 39.128906 240.949219 39.015625 240.886719 C 38.570312 240.652344 38.207031 240.535156 37.445312 239.921875 C 34.1875 237.207031 30.53125 234.484375 27.59375 231.371094 C 26.335938 230.144531 25.242188 229.164062 24.25 228.3125 C 23.917969 228.027344 23.863281 228.230469 24.167969 228.714844 C 24.6875 229.542969 25.558594 230.855469 26.34375 231.816406 C 30 236.65625 34.578125 240.460938 38.449219 244.226562 C 48.5 252.714844 59.839844 261.066406 72.074219 266.890625 C 90.507812 276.132812 110.152344 281.226562 129.21875 282.425781 C 138.527344 283.152344 146.925781 282.523438 155.972656 281.722656 C 168.210938 280.191406 179.214844 277.625 189.675781 273.621094 C 192.859375 272.386719 195.933594 271.207031 198.921875 269.9375 C 201.816406 268.449219 204.679688 266.980469 207.578125 265.492188 C 210.503906 264.082031 213.34375 262.449219 216.167969 260.566406 C 219.019531 258.738281 222.027344 256.972656 225.070312 254.929688 C 225.753906 254.390625 226.320312 253.953125 226.921875 253.476562 C 238.035156 245.304688 247.480469 235.226562 255.871094 224.722656 C 262.269531 215.921875 267.9375 207.003906 272.40625 197.027344 C 276.367188 188.824219 278.46875 181.273438 280.566406 173.710938 C 281.625 168.507812 282.273438 164.277344 282.671875 160.515625 C 282.761719 157.1875 282.851562 153.65625 282.9375 150.324219 C 282.960938 148.921875 282.894531 147.8125 282.851562 146.632812"/><path fill="#F47D31" d="M 78.195312 245.089844 L 78.28125 245.109375 L 78.273438 245.101562 L 78.097656 245.015625 L 78.035156 244.996094 L 78.195312 245.089844"/><path fill="#F47D31" d="M 76.996094 245.109375 C 77.539062 245.492188 78.273438 246.023438 78.878906 246.355469 C 80.699219 247.355469 82.285156 247.964844 81.9375 247.574219 C 81.570312 247.15625 80.375 246.421875 79.203125 245.707031 L 78.195312 245.089844 C 77.753906 245.015625 77.304688 244.941406 76.910156 244.871094 C 76.789062 244.859375 76.777344 244.953125 76.996094 245.109375"/><path fill="#F47D31" d="M 3.234375 195.222656 C 3.164062 195.160156 3.273438 195.554688 3.304688 195.746094 C 3.5 196.175781 3.773438 196.78125 3.875 197.003906 C 4.335938 197.792969 4.265625 197.402344 3.703125 196.066406 C 3.5625 195.734375 3.308594 195.289062 3.234375 195.222656"/><path fill="#F47D31" d="M 45.128906 29.648438 L 45.609375 29.050781 L 44.808594 29.796875 Z M 45.128906 29.648438"/><path fill="#F47D31" d="M 253.65625 56.507812 L 253.128906 55.675781 L 253.171875 55.941406 Z M 253.65625 56.507812"/><path fill="#F47D31" d="M 150.816406 7.421875 C 150.925781 7.421875 151.035156 7.414062 151.148438 7.414062 C 151.128906 7.414062 151.113281 7.410156 151.097656 7.410156 C 151.003906 7.414062 150.910156 7.421875 150.816406 7.421875"/><path fill="#F47D31" d="M 186.398438 12.523438 C 182.765625 11.59375 179.15625 10.453125 175.453125 9.710938 C 171.71875 9.125 167.972656 8.539062 164.210938 7.949219 C 160.40625 7.753906 156.59375 7.554688 152.761719 7.359375 C 152.226562 7.359375 151.683594 7.402344 151.148438 7.414062 C 154.402344 7.449219 157.632812 7.734375 160.800781 7.90625 C 169.324219 8.566406 177.972656 10.1875 186.398438 12.523438"/><path fill="#F47D31" d="M 150.816406 7.421875 C 147.628906 7.511719 144.429688 7.738281 141.222656 7.882812 C 144.425781 7.730469 147.632812 7.574219 150.816406 7.421875"/><path fill="#FFF" d="M 146.917969 39.980469 C 147.289062 39.980469 147.660156 40.105469 147.90625 39.738281 C 148.152344 41.089844 148.402344 42.445312 148.773438 43.921875 L 148.402344 44.167969 L 147.90625 42.9375 C 146.546875 46.628906 148.773438 50.324219 149.386719 53.894531 C 150.621094 55.496094 150.621094 57.710938 150.5 59.804688 C 149.019531 59.558594 149.757812 61.40625 148.773438 61.652344 C 149.019531 62.265625 149.511719 62.757812 149.386719 63.621094 C 147.164062 64.609375 145.558594 62.144531 145.1875 60.667969 C 144.820312 59.925781 144.820312 58.941406 143.957031 58.328125 C 143.585938 60.296875 142.101562 58.453125 140.992188 58.695312 C 138.277344 45.277344 139.015625 31.238281 139.265625 16.957031 C 140.253906 14.125 139.265625 11.539062 139.511719 8.460938 C 140.253906 10.308594 139.511719 12.648438 140.128906 14.617188 C 140.375 13.015625 140.992188 11.664062 140.746094 9.941406 L 141.363281 15.480469 L 141.609375 15.480469 L 141.609375 -0.402344 C 141.363281 13.878906 146.671875 26.316406 146.917969 39.980469"/><path fill="#FFF" d="M 141.980469 21.144531 L 141.609375 16.09375 L 141.980469 20.28125 L 141.980469 21.144531"/><path fill="#FFF" d="M 177.78125 61.035156 C 175.683594 63.128906 173.460938 65.34375 171.238281 66.332031 C 170.992188 58.820312 175.066406 51.679688 177.535156 44.414062 C 181.980469 36.164062 184.695312 26.933594 191.117188 19.296875 L 191.980469 16.957031 C 186.917969 31.484375 183.460938 46.753906 177.78125 61.035156"/><path fill="#FFF" d="M 110.253906 59.558594 C 110.746094 59.804688 110.992188 59.1875 111.363281 58.941406 C 111.242188 62.144531 113.089844 62.023438 111.117188 64.851562 C 110.253906 65.46875 109.386719 65.835938 108.15625 65.714844 C 99.019531 57.339844 95.808594 45.152344 92.476562 35.054688 L 95.066406 41.214844 C 93.585938 34.441406 91.242188 27.300781 89.140625 20.28125 C 94.328125 34.074219 102.105469 47.121094 110.253906 59.558594"/><path fill="#FFF" d="M 140.996094 32.589844 L 141.367188 38.867188 L 140.996094 32.589844"/><path fill="#FFF" d="M 240.25 50.691406 C 227.039062 60.542969 211.734375 71.5 202.96875 87.015625 C 198.027344 88.367188 193.832031 91.570312 188.152344 91.203125 C 189.511719 90.585938 187.535156 89.230469 188.152344 88.246094 L 186.917969 88.246094 C 187.90625 87.136719 189.757812 86.890625 189.878906 85.289062 C 188.769531 84.921875 189.386719 81.71875 186.671875 82.832031 C 187.289062 81.351562 188.769531 80.980469 190.25 80.859375 C 191.609375 77.65625 195.3125 78.765625 197.65625 77.289062 C 210.746094 68.300781 221.980469 54.757812 236.792969 49.460938 C 238.03125 49.707031 240.003906 48.847656 240.25 50.691406"/><path fill="#FFF" d="M 55.070312 70.148438 L 55.6875 69.53125 C 62.847656 74.210938 69.140625 81.351562 77.289062 83.445312 C 79.019531 83.074219 79.757812 83.199219 81.488281 83.199219 C 81.734375 83.816406 81.488281 84.796875 82.351562 85.289062 C 83.832031 84.429688 84.078125 86.152344 84.699219 87.015625 C 84.203125 87.753906 83.09375 86.769531 82.722656 87.875 C 83.460938 89.355469 86.425781 88.617188 86.175781 90.832031 C 84.820312 93.050781 80.253906 90.953125 82.105469 95.265625 L 81.242188 98.835938 C 68.648438 95.632812 61.734375 82.953125 52.722656 74.332031 L 56.546875 76.917969 C 56.304688 77.042969 56.179688 76.796875 56.054688 76.671875 L 55.4375 77.289062 C 57.535156 77.90625 58.03125 80.488281 60.5 80.488281 C 60.003906 78.027344 56.425781 76.796875 55.070312 74.332031 C 56.917969 74.703125 58.648438 76.917969 60.5 78.148438 C 59.390625 75.6875 56.917969 73.59375 54.203125 71.625 L 48.03125 64.238281 C 50.5 66.699219 52.351562 68.671875 55.070312 70.148438"/><path fill="#FFF" d="M 143.460938 66.332031 C 156.179688 64.976562 167.164062 70.148438 176.917969 76.425781 C 162.472656 72.734375 146.917969 66.824219 132.105469 74.578125 C 129.757812 74.949219 127.164062 76.058594 126.179688 78.398438 L 126.550781 79.382812 L 124.449219 80.242188 C 124.449219 79.875 124.574219 79.503906 124.203125 79.382812 C 123.214844 80.367188 120.992188 79.628906 120.003906 81.105469 L 120.253906 81.351562 C 119.019531 82.089844 116.054688 83.816406 113.832031 83.199219 C 103.957031 90.953125 96.179688 99.699219 91.609375 110.902344 C 92.722656 110.902344 94.203125 108.808594 94.203125 107.699219 C 94.574219 107.453125 94.695312 106.960938 95.066406 107.082031 L 95.4375 107.453125 C 94.695312 105.730469 97.164062 105.238281 97.535156 103.882812 C 97.164062 105.238281 94.695312 107.824219 96.054688 109.792969 L 90.992188 117.796875 C 89.390625 117.179688 89.761719 119.152344 89.140625 119.765625 C 90.128906 124.074219 86.546875 129.738281 86.546875 135.15625 C 86.671875 139.097656 84.203125 141.1875 85.929688 144.636719 L 86.175781 144.390625 C 86.425781 144.757812 87.164062 147.59375 85.6875 146.730469 C 85.316406 147.46875 86.300781 147.46875 86.175781 147.59375 C 85.6875 148.578125 85.929688 150.054688 86.796875 150.792969 L 87.164062 150.546875 C 87.90625 152.148438 89.265625 154.855469 88.277344 156.703125 C 90.003906 156.703125 89.882812 159.289062 90.621094 160.644531 C 91.609375 166.058594 94.328125 171.476562 98.402344 175.910156 C 99.019531 177.757812 101.238281 178.988281 102.226562 180.710938 C 104.203125 180.097656 106.179688 183.789062 107.90625 182.4375 L 107.539062 182.191406 C 110.992188 183.175781 110.128906 187.113281 114.328125 186.867188 C 118.894531 189.578125 124.449219 187.851562 129.511719 188.34375 C 136.054688 189.945312 141.609375 185.390625 147.535156 186.621094 C 151.488281 185.390625 155.3125 182.925781 159.386719 183.050781 C 166.425781 179.605469 174.328125 176.15625 179.261719 168.523438 C 189.265625 155.472656 193.953125 139.34375 191.734375 121.859375 C 188.277344 107.332031 174.574219 92.308594 159.140625 90.585938 C 141.609375 86.769531 127.410156 96.25 118.277344 110.410156 C 112.101562 120.628906 110.5 136.757812 117.289062 147.34375 C 122.847656 158.054688 135.3125 160.890625 146.917969 159.660156 C 153.335938 158.671875 160.128906 156.210938 163.214844 149.933594 C 169.015625 141.066406 165.066406 128.875 163.214844 119.519531 C 161.734375 116.316406 158.398438 114.964844 155.5625 113.609375 C 149.019531 113.730469 142.71875 113.980469 138.027344 118.65625 C 139.015625 125.554688 137.660156 133.679688 144.945312 137.867188 C 147.535156 138.480469 149.511719 140.328125 152.597656 139.589844 C 153.460938 142.050781 149.882812 140.945312 148.773438 141.929688 C 143.957031 140.082031 139.265625 137.371094 138.027344 131.953125 L 136.546875 116.566406 C 138.398438 108.4375 147.785156 108.808594 154.324219 107.453125 C 161.855469 108.5625 168.152344 112.378906 172.71875 118.65625 C 174.078125 123.089844 176.300781 127.523438 175.4375 132.570312 C 177.414062 137.496094 175.4375 142.789062 174.820312 148.207031 C 172.101562 155.226562 167.90625 162.367188 160.867188 166.800781 C 151.363281 168.644531 141.484375 170.492188 132.105469 166.800781 C 120.003906 163.597656 110.003906 151.53125 108.398438 139.34375 C 105.066406 119.394531 115.808594 101.667969 131.855469 91.203125 C 146.511719 81.878906 166.722656 83.859375 180.746094 94.648438 C 196.425781 106.960938 205.683594 124.691406 203.585938 145.25 C 202.84375 163.472656 191.238281 179.605469 175.066406 188.34375 C 167.535156 190.4375 159.636719 195.117188 152.351562 194.625 C 146.054688 194.996094 140.5 196.472656 133.585938 195.488281 L 130.992188 196.347656 L 131.238281 197.578125 C 132.351562 197.335938 133.339844 197.210938 134.574219 197.210938 C 123.957031 198.070312 112.101562 195.980469 103.710938 190.191406 C 102.105469 187.976562 99.386719 187.976562 97.78125 186.621094 C 87.042969 181.695312 84.328125 169.753906 80.007812 160.273438 L 79.757812 157.320312 C 80.253906 158.796875 80.871094 160.273438 81.488281 161.75 C 82.84375 158.546875 80.253906 156.332031 80.253906 152.886719 C 76.179688 142.914062 79.265625 129.613281 80.253906 120.378906 C 80.5 118.164062 82.472656 115.210938 81.488281 114.226562 C 82.105469 111.273438 83.09375 108.683594 84.449219 105.976562 C 87.164062 106.46875 86.175781 103.390625 87.164062 102.035156 C 90.375 98.464844 91.242188 93.910156 95.4375 90.214844 C 97.660156 89.722656 97.78125 91.570312 99.511719 90.214844 C 98.277344 91.816406 97.660156 90.707031 96.054688 91.445312 C 96.796875 91.203125 97.164062 93.050781 98.03125 92.679688 C 97.78125 93.050781 96.792969 93.050781 97.164062 93.785156 C 97.90625 94.15625 98.648438 93.171875 99.265625 92.679688 C 99.140625 91.9375 99.882812 91.203125 100.5 90.214844 C 102.226562 90.339844 104.082031 88 104.328125 87.015625 C 103.585938 86.03125 103.214844 87.753906 102.476562 87.632812 L 103.460938 86.769531 L 102.226562 86.402344 L 103.957031 84.675781 L 103.957031 84.921875 C 104.941406 85.539062 106.054688 84.921875 106.671875 84.058594 L 105.4375 83.199219 C 112.472656 80.613281 116.796875 71.75 124.695312 70.761719 C 130.007812 67.4375 136.671875 66.207031 143.460938 66.085938 L 143.460938 66.332031"/><path fill="#FFF" d="M 139.265625 69.902344 C 138.027344 70.269531 137.042969 71.5 135.4375 71.007812 C 136.546875 70.269531 138.027344 70.269531 139.265625 69.902344"/><path fill="#FFF" d="M 107.289062 85.539062 L 105.808594 87.015625 L 107.289062 85.539062"/><path fill="#FFF" d="M 100.996094 87.875 L 100.746094 87.261719 L 101.609375 87.261719 L 100.996094 87.875"/><path fill="#FFF" d="M 101.609375 88.246094 L 100.128906 89.355469 L 101.609375 88.246094"/><path fill="#FFF" d="M 95.4375 92.0625 L 94.574219 92.925781 L 95.4375 92.0625"/><path fill="#FFF" d="M 85.066406 97.355469 L 84.699219 98.835938 L 85.066406 97.355469"/><path fill="#FFF" d="M 254.199219 99.699219 C 254.199219 100.066406 254.324219 100.191406 254.570312 100.3125 C 239.386719 105.238281 225.4375 113.238281 208.890625 115.085938 C 208.03125 114.472656 206.671875 114.839844 205.929688 113.855469 C 206.425781 112.5 206.917969 111.148438 208.273438 110.039062 C 207.414062 108.191406 203.214844 110.160156 204.695312 107.453125 C 208.644531 106.839844 212.105469 105.238281 215.4375 103.511719 C 227.285156 102.28125 239.507812 102.777344 250.992188 99.699219 L 254.199219 99.699219"/><g clip-path="url(#a)"><path fill="#FFF" d="M 35.5625 114.472656 C 46.054688 114.226562 54.945312 116.195312 65.4375 115.085938 C 66.179688 112.5 69.757812 115.332031 69.636719 112.746094 C 72.476562 113.730469 69.019531 114.964844 70.5 116.808594 C 72.226562 117.917969 74.574219 118.410156 75.3125 120.136719 C 75.070312 121.492188 72.105469 121.859375 74.082031 123.335938 C 67.292969 123.828125 58.152344 123.582031 51.242188 123.707031 C 42.847656 122.722656 34.699219 121.242188 27.289062 118.042969 C 29.882812 117.671875 32.96875 118.65625 35.5625 118.289062 C 26.550781 116.6875 18.402344 112.625 10.128906 109.175781 L 35.5625 114.472656"/></g><path fill="#FFF" d="M 90.992188 109.175781 L 90.621094 110.039062 L 90.992188 109.175781"/><g clip-path="url(#b)"><path fill="#FFF" d="M 226.917969 141.929688 C 239.015625 143.527344 252.71875 141.558594 261.976562 149.316406 C 261.484375 150.792969 262.597656 151.410156 263.460938 152.269531 L 259.511719 150.792969 C 242.105469 148.824219 220.621094 155.226562 208.890625 140.820312 C 210.128906 139.714844 211.117188 139.34375 212.71875 138.726562 C 218.027344 138.480469 222.101562 141.3125 226.917969 141.929688"/></g><path fill="#FFF" d="M 77.042969 142.296875 L 77.292969 142.296875 L 77.292969 143.40625 L 77.042969 143.40625 Z M 77.042969 142.296875"/><path fill="#FFF" d="M 70.871094 149.316406 C 71.980469 149.316406 72.84375 150.671875 73.464844 151.164062 L 73.832031 152.640625 C 73.09375 152.269531 72.84375 153.253906 72.351562 153.503906 C 72.105469 153.996094 72.722656 154.117188 72.84375 154.363281 C 73.464844 154.117188 73.710938 153.625 74.328125 153.746094 C 75.191406 155.101562 75.191406 155.839844 75.5625 157.320312 C 75.070312 157.320312 74.699219 157.933594 74.328125 158.179688 C 75.808594 159.289062 74.203125 160.765625 74.699219 161.75 C 70.253906 166.183594 63.585938 165.199219 58.648438 168.277344 C 50.253906 171.601562 41.488281 175.046875 32.351562 175.664062 L 23.464844 177.390625 C 26.179688 176.277344 29.390625 175.542969 31.734375 174.1875 C 26.917969 173.816406 21.984375 176.277344 17.539062 175.664062 C 21.734375 173.816406 24.699219 171.109375 28.773438 168.894531 C 28.523438 168.398438 27.90625 168.644531 27.535156 168.523438 L 27.90625 168.277344 L 25.808594 168.277344 L 29.019531 167.660156 L 28.773438 167.414062 C 28.648438 167.414062 30.375 167.539062 30.871094 166.800781 C 30.621094 164.707031 36.550781 166.058594 33.464844 164.460938 C 34.207031 163.722656 35.191406 163.84375 36.179688 163.84375 L 35.316406 164.460938 C 38.648438 164.460938 40.871094 161.75 44.203125 160.644531 C 46.425781 159.535156 48.894531 159.289062 50.625 157.074219 L 50.375 156.703125 C 54.082031 155.839844 57.535156 151.164062 61.980469 150.792969 C 63.464844 148.328125 67.167969 150.671875 69.882812 149.933594 L 70.871094 149.316406"/><path fill="#FFF" d="M 83.585938 154.117188 L 83.832031 153.746094 L 84.449219 154.734375 C 82.601562 155.472656 84.203125 158.054688 84.203125 158.796875 C 83.09375 155.964844 82.472656 153.253906 82.351562 150.300781 C 83.214844 150.671875 81.859375 153.378906 83.585938 154.117188"/><path fill="#FFF" d="M 82.722656 162.613281 C 82.351562 162.859375 82.351562 163.230469 82.351562 163.597656 L 81.734375 161.75 L 82.722656 162.613281"/><path fill="#FFF" d="M 82.96875 163.84375 L 83.214844 165.074219 L 82.96875 163.84375"/><path fill="#FFF" d="M 220.496094 181.820312 C 225.683594 185.636719 229.882812 190.929688 231.730469 196.597656 C 220.496094 190.5625 207.289062 186.867188 197.90625 176.277344 C 198.277344 174.554688 200.25 175.910156 201.238281 175.046875 L 200.621094 174.433594 C 208.644531 171.722656 213.832031 179.480469 220.496094 181.820312"/><path fill="#FFF" d="M 90.992188 186.867188 C 88.277344 189.824219 95.191406 192.285156 90.621094 194.625 C 79.140625 205.707031 66.304688 218.757812 53.585938 229.714844 L 59.019531 223.804688 C 57.167969 223.3125 55.6875 225.777344 54.203125 226.511719 L 48.894531 231.5625 C 50.871094 229.589844 53.214844 227.5 53.585938 225.285156 C 50.128906 227.621094 46.550781 230.085938 42.96875 232.425781 C 44.945312 229.589844 47.414062 228.855469 49.140625 226.511719 C 49.019531 226.144531 48.648438 226.144531 48.277344 226.144531 C 59.019531 211.738281 71.363281 196.597656 86.175781 185.144531 C 85.808594 184.28125 86.796875 183.542969 87.414062 183.296875 C 89.140625 183.296875 90.128906 185.511719 90.992188 186.867188"/><path fill="#FFF" d="M 97.78125 187.484375 L 101.363281 190.191406 C 98.648438 189.578125 96.300781 188.34375 94.203125 186.253906 C 95.683594 186.128906 95.933594 188.34375 97.78125 187.484375"/><path fill="#FFF" d="M 164.695312 193.640625 C 164.324219 193.886719 163.832031 194.007812 163.214844 194.007812 C 163.710938 193.886719 164.203125 193.640625 164.695312 193.640625"/><path fill="#FFF" d="M 175.066406 203.488281 C 178.03125 203.121094 175.558594 205.953125 176.300781 206.9375 L 175.4375 208.785156 C 178.152344 219.003906 179.878906 230.085938 179.511719 241.289062 C 171.484375 229.839844 169.140625 215.679688 163.214844 203.121094 L 163.585938 203.121094 C 164.203125 202.503906 163.460938 201.765625 162.96875 201.398438 C 165.929688 199.179688 171.238281 197.949219 174.820312 200.164062 L 175.066406 203.488281"/><g clip-path="url(#c)"><path fill="#FFF" d="M 129.140625 208.167969 C 128.277344 209.402344 130.375 210.136719 130.992188 211.125 C 128.398438 211.367188 130.496094 214.9375 127.660156 214.328125 C 117.164062 229.347656 110.746094 246.089844 103.710938 262.589844 C 101.980469 265.050781 100.253906 268.253906 97.535156 269.605469 L 96.921875 268.746094 C 104.328125 247.445312 110.625 225.53125 120.621094 205.214844 L 119.757812 203.488281 L 122.722656 201.640625 C 125.3125 203.367188 127.289062 205.335938 129.140625 208.167969"/></g></svg>